<svg width="207" height="225" version="1.1" xmlns="http://www.w3.org/2000/svg" desc="Created with imagetracer.js version 1.2.6" ><path fill="rgb(0,0,0)" stroke="rgb(0,0,0)" stroke-width="1" opacity="0" d="M 0 0 L 207 0 L 207 225 L 0 225 L 0 0 Z M 41 38 L 39 39 Q 28 50 25 68 L 25 87 L 26 89 Q 27 93 33 92 L 36 89 L 39 80 Q 41 67 35 63 L 31 65 L 31 59 L 37 46 L 43 45 Q 49 50 48 62 L 48 64 L 48 82 L 47 83 L 44 110 L 41 123 L 27 157 L 12 181 L 10 188 Q 9 190 12 189 Q 31 166 45 137 L 53 116 L 56 101 L 56 110 L 60 112 L 62 110 L 64 104 L 63 94 L 60 92 L 57 98 L 56 98 L 57 87 L 58 86 L 58 64 Q 55 62 57 56 L 55 47 L 52 42 Q 50 36 41 38 Z M 64 51 Q 57 55 59 69 L 63 71 L 66 67 Q 65 61 67 60 L 66 53 L 64 51 Z M 75 52 L 71 56 L 72 62 L 76 65 L 89 72 L 94 80 L 95 83 Q 96 90 92 94 L 83 99 L 68 97 Q 64 98 65 105 L 70 109 L 91 119 Q 102 127 105 143 L 104 160 L 102 167 L 97 175 Q 96 183 100 186 Q 122 203 151 214 L 156 213 Q 161 211 160 204 L 155 198 L 143 191 Q 134 185 132 173 L 131 170 L 132 157 L 137 147 L 141 143 L 140 138 L 131 130 L 99 112 L 98 110 L 102 112 L 114 109 L 119 105 L 122 99 L 122 85 L 117 75 L 101 60 L 81 52 L 75 52 Z " /><path fill="rgb(230,230,230)" stroke="rgb(230,230,230)" stroke-width="1" opacity="0.5137254901960784" d="M 38.5 39 L 35 43.5 L 33.5 46 L 34 44.5 L 38.5 39 Z " /><path fill="rgb(230,230,230)" stroke="rgb(230,230,230)" stroke-width="1" opacity="0.5137254901960784" d="M 49.5 39 L 51.5 42 L 49.5 39 Z " /><path fill="rgb(230,230,230)" stroke="rgb(230,230,230)" stroke-width="1" opacity="0.5137254901960784" d="M 39.5 44 Q 45.3 43.3 46 47.5 L 47 50.5 L 46 50.5 L 42.5 45 L 38.5 46 L 39.5 44 Z " /><path fill="rgb(230,230,230)" stroke="rgb(230,230,230)" stroke-width="1" opacity="0.5137254901960784" d="M 36.5 47 L 35.5 49 L 36.5 47 Z " /><path fill="rgb(230,230,230)" stroke="rgb(230,230,230)" stroke-width="1" opacity="0.5137254901960784" d="M 55.5 49 L 56 52.5 L 55 52.5 L 55.5 49 Z " /><path fill="rgb(230,230,230)" stroke="rgb(230,230,230)" stroke-width="1" opacity="0.5137254901960784" d="M 63.5 51 L 66 52.5 L 64.5 52 L 63.5 51 Z " /><path fill="rgb(230,230,230)" stroke="rgb(230,230,230)" stroke-width="1" opacity="0.5137254901960784" d="M 74.5 52 L 81 52.5 Q 73.5 51.5 71.5 56 L 74.5 52 Z " /><path fill="rgb(230,230,230)" stroke="rgb(230,230,230)" stroke-width="1" opacity="0.5137254901960784" d="M 61.5 53 L 61 54.5 L 60.5 56 L 60 54.5 L 61.5 53 Z " /><path fill="rgb(230,230,230)" stroke="rgb(230,230,230)" stroke-width="1" opacity="0.5137254901960784" d="M 32.5 54 L 33 55.5 L 31.5 58 L 31 56.5 L 32.5 54 Z " /><path fill="rgb(230,230,230)" stroke="rgb(230,230,230)" stroke-width="1" opacity="0.5137254901960784" d="M 56.5 55 L 57 58.5 L 56 58.5 L 56.5 55 Z " /><path fill="rgb(230,230,230)" stroke="rgb(230,230,230)" stroke-width="1" opacity="0.5137254901960784" d="M 59.5 57 L 60 61.5 L 59 61.5 L 59.5 57 Z " /><path fill="rgb(230,230,230)" stroke="rgb(230,230,230)" stroke-width="1" opacity="0.5137254901960784" d="M 93.5 57 L 99 59.5 L 97.5 60 L 93.5 58 L 93.5 57 Z " /><path fill="rgb(230,230,230)" stroke="rgb(230,230,230)" stroke-width="1" opacity="0.5137254901960784" d="M 30.5 59 L 32 65.5 L 30 64.5 L 30.5 59 Z " /><path fill="rgb(230,230,230)" stroke="rgb(230,230,230)" stroke-width="1" opacity="0.5137254901960784" d="M 100.5 60 L 101.5 62 L 100.5 60 Z " /><path fill="rgb(230,230,230)" stroke="rgb(230,230,230)" stroke-width="1" opacity="0.5137254901960784" d="M 72.5 61 L 84 68.5 L 82.5 68 Q 74.6 66.3 72.5 61 Z " /><path fill="rgb(230,230,230)" stroke="rgb(230,230,230)" stroke-width="1" opacity="0.5137254901960784" d="M 26.5 62 L 27 64.5 L 26 64.5 L 26.5 62 Z " /><path fill="rgb(230,230,230)" stroke="rgb(230,230,230)" stroke-width="1" opacity="0.5137254901960784" d="M 103.5 62 L 104.5 64 L 103.5 62 Z " /><path fill="rgb(230,230,230)" stroke="rgb(230,230,230)" stroke-width="1" opacity="0.5137254901960784" d="M 57.5 63 L 58 85.5 L 57 85.5 L 57.5 63 Z " /><path fill="rgb(230,230,230)" stroke="rgb(230,230,230)" stroke-width="1" opacity="0.5137254901960784" d="M 48.5 64 L 49 79.5 L 48 79.5 L 48.5 64 Z " /><path fill="rgb(230,230,230)" stroke="rgb(230,230,230)" stroke-width="1" opacity="0.5137254901960784" d="M 106.5 64 L 116.5 75 L 106.5 64 Z " /><path fill="rgb(230,230,230)" stroke="rgb(230,230,230)" stroke-width="1" opacity="0.5137254901960784" d="M 36.5 65 L 39 68.5 L 39 79.5 L 38 79.5 Q 39.4 68.7 36.5 65 Z " /><path fill="rgb(230,230,230)" stroke="rgb(230,230,230)" stroke-width="1" opacity="0.5137254901960784" d="M 59.5 66 L 61.5 70 L 64.5 68 L 62.5 71 L 59 68.5 L 59.5 66 Z " /><path fill="rgb(230,230,230)" stroke="rgb(230,230,230)" stroke-width="1" opacity="0.5137254901960784" d="M 25.5 67 L 26 75.5 L 25 75.5 L 25.5 67 Z " /><path fill="rgb(230,230,230)" stroke="rgb(230,230,230)" stroke-width="1" opacity="0.5137254901960784" d="M 85.5 69 L 87.5 72 L 85.5 69 Z " /><path fill="rgb(230,230,230)" stroke="rgb(230,230,230)" stroke-width="1" opacity="0.5137254901960784" d="M 92.5 76 L 95 79.5 L 94 79.5 L 92.5 76 Z " /><path fill="rgb(230,230,230)" stroke="rgb(230,230,230)" stroke-width="1" opacity="0.5137254901960784" d="M 117.5 76 L 118.5 78 L 117.5 76 Z " /><path fill="rgb(230,230,230)" stroke="rgb(230,230,230)" stroke-width="1" opacity="0.5137254901960784" d="M 37.5 81 L 38 84.5 L 37 84.5 L 37.5 81 Z " /><path fill="rgb(230,230,230)" stroke="rgb(230,230,230)" stroke-width="1" opacity="0.5137254901960784" d="M 94.5 81 Q 97 82 96 86.5 L 95 86.5 L 94.5 81 Z " /><path fill="rgb(230,230,230)" stroke="rgb(230,230,230)" stroke-width="1" opacity="0.5137254901960784" d="M 47.5 82 L 48 88.5 L 47 88.5 L 47.5 82 Z " /><path fill="rgb(230,230,230)" stroke="rgb(230,230,230)" stroke-width="1" opacity="0.5137254901960784" d="M 120.5 82 Q 122.9 84.1 122 89.5 L 121 89.5 L 120.5 82 Z " /><path fill="rgb(230,230,230)" stroke="rgb(230,230,230)" stroke-width="1" opacity="0.5137254901960784" d="M 25.5 83 L 26 86.5 L 25 86.5 L 25.5 83 Z " /><path fill="rgb(230,230,230)" stroke="rgb(230,230,230)" stroke-width="1" opacity="0.5137254901960784" d="M 26.5 88 Q 27.2 91.8 32.5 91 L 36 88.5 Q 35.2 92.8 29.5 92 L 26.5 88 Z " /><path fill="rgb(230,230,230)" stroke="rgb(230,230,230)" stroke-width="1" opacity="0.5137254901960784" d="M 56.5 88 L 58 95.5 L 56 94.5 L 56.5 88 Z " /><path fill="rgb(230,230,230)" stroke="rgb(230,230,230)" stroke-width="1" opacity="0.5137254901960784" d="M 46.5 90 L 47 95.5 L 44.5 109 L 44 103.5 L 46.5 90 Z " /><path fill="rgb(230,230,230)" stroke="rgb(230,230,230)" stroke-width="1" opacity="0.5137254901960784" d="M 93.5 91 L 92.5 93 L 93.5 91 Z " /><path fill="rgb(230,230,230)" stroke="rgb(230,230,230)" stroke-width="1" opacity="0.5137254901960784" d="M 59.5 92 L 63 93.5 L 61.5 93 L 58.5 94 L 59.5 92 Z " /><path fill="rgb(230,230,230)" stroke="rgb(230,230,230)" stroke-width="1" opacity="0.5137254901960784" d="M 89.5 95 L 88.5 97 L 89.5 95 Z " /><path fill="rgb(230,230,230)" stroke="rgb(230,230,230)" stroke-width="1" opacity="0.5137254901960784" d="M 121.5 95 L 122 98.5 L 121 98.5 L 121.5 95 Z " /><path fill="rgb(230,230,230)" stroke="rgb(230,230,230)" stroke-width="1" opacity="0.5137254901960784" d="M 55.5 96 L 57 101.5 L 55 100.5 L 55 98.5 L 55.5 96 Z " /><path fill="rgb(230,230,230)" stroke="rgb(230,230,230)" stroke-width="1" opacity="0.5137254901960784" d="M 63.5 96 L 64 103.5 L 63 103.5 L 63.5 96 Z " /><path fill="rgb(230,230,230)" stroke="rgb(230,230,230)" stroke-width="1" opacity="0.5137254901960784" d="M 67.5 97 L 73 97.5 L 67.5 98 L 67.5 97 Z " /><path fill="rgb(230,230,230)" stroke="rgb(230,230,230)" stroke-width="1" opacity="0.5137254901960784" d="M 75.5 98 L 78 98.5 L 75.5 99 L 75.5 98 Z " /><path fill="rgb(230,230,230)" stroke="rgb(230,230,230)" stroke-width="1" opacity="0.5137254901960784" d="M 54.5 103 L 55 107.5 L 54 107.5 L 54.5 103 Z " /><path fill="rgb(230,230,230)" stroke="rgb(230,230,230)" stroke-width="1" opacity="0.5137254901960784" d="M 65.5 103 L 70 108.5 L 65 104.5 L 65.5 103 Z " /><path fill="rgb(230,230,230)" stroke="rgb(230,230,230)" stroke-width="1" opacity="0.5137254901960784" d="M 119.5 103 L 118.5 105 L 119.5 103 Z " /><path fill="rgb(230,230,230)" stroke="rgb(230,230,230)" stroke-width="1" opacity="0.5137254901960784" d="M 115.5 106 L 113.5 109 L 112 108.5 L 115.5 106 Z " /><path fill="rgb(230,230,230)" stroke="rgb(230,230,230)" stroke-width="1" opacity="0.5137254901960784" d="M 56.5 108 L 58.5 111 L 61.5 109 L 59.5 112 L 56 109.5 L 56.5 108 Z " /><path fill="rgb(230,230,230)" stroke="rgb(230,230,230)" stroke-width="1" opacity="0.5137254901960784" d="M 109.5 109 L 111 109.5 L 101.5 112 L 101.5 111 L 109.5 109 Z " /><path fill="rgb(230,230,230)" stroke="rgb(230,230,230)" stroke-width="1" opacity="0.5137254901960784" d="M 43.5 110 L 44 112.5 L 43 112.5 L 43.5 110 Z " /><path fill="rgb(230,230,230)" stroke="rgb(230,230,230)" stroke-width="1" opacity="0.5137254901960784" d="M 99.5 112 L 100.5 114 L 99.5 112 Z " /><path fill="rgb(230,230,230)" stroke="rgb(230,230,230)" stroke-width="1" opacity="0.5137254901960784" d="M 52.5 113 L 53 115.5 L 51.5 119 L 51 116.5 L 52.5 113 Z " /><path fill="rgb(230,230,230)" stroke="rgb(230,230,230)" stroke-width="1" opacity="0.5137254901960784" d="M 102.5 114 L 103.5 116 L 102.5 114 Z " /><path fill="rgb(230,230,230)" stroke="rgb(230,230,230)" stroke-width="1" opacity="0.5137254901960784" d="M 42.5 115 L 43 117.5 L 42 117.5 L 42.5 115 Z " /><path fill="rgb(230,230,230)" stroke="rgb(230,230,230)" stroke-width="1" opacity="0.5137254901960784" d="M 88.5 117 L 99 126.5 L 90.5 119 L 88.5 117 Z " /><path fill="rgb(230,230,230)" stroke="rgb(230,230,230)" stroke-width="1" opacity="0.5137254901960784" d="M 107.5 117 L 108.5 119 L 107.5 117 Z " /><path fill="rgb(230,230,230)" stroke="rgb(230,230,230)" stroke-width="1" opacity="0.5137254901960784" d="M 41.5 119 L 42 121.5 L 41 121.5 L 41.5 119 Z " /><path fill="rgb(230,230,230)" stroke="rgb(230,230,230)" stroke-width="1" opacity="0.5137254901960784" d="M 112.5 120 L 116 122.5 L 114.5 122 L 112.5 120 Z " /><path fill="rgb(230,230,230)" stroke="rgb(230,230,230)" stroke-width="1" opacity="0.5137254901960784" d="M 119.5 124 L 127 128.5 L 125.5 128 Q 119.9 127.2 119.5 124 Z " /><path fill="rgb(230,230,230)" stroke="rgb(230,230,230)" stroke-width="1" opacity="0.5137254901960784" d="M 99.5 128 L 103 133.5 L 101 132.5 L 99.5 128 Z " /><path fill="rgb(230,230,230)" stroke="rgb(230,230,230)" stroke-width="1" opacity="0.5137254901960784" d="M 130.5 130 L 131.5 132 L 130.5 130 Z " /><path fill="rgb(230,230,230)" stroke="rgb(230,230,230)" stroke-width="1" opacity="0.5137254901960784" d="M 36.5 134 L 37 135.5 L 33.5 142 L 33 140.5 L 36.5 134 Z " /><path fill="rgb(230,230,230)" stroke="rgb(230,230,230)" stroke-width="1" opacity="0.5137254901960784" d="M 136.5 134 L 139.5 138 L 136.5 134 Z " /><path fill="rgb(230,230,230)" stroke="rgb(230,230,230)" stroke-width="1" opacity="0.5137254901960784" d="M 104.5 138 L 106 147.5 L 105 147.5 L 104.5 138 Z " /><path fill="rgb(230,230,230)" stroke="rgb(230,230,230)" stroke-width="1" opacity="0.5137254901960784" d="M 42.5 140 L 42 141.5 L 36.5 152 L 37 150.5 L 42.5 140 Z " /><path fill="rgb(230,230,230)" stroke="rgb(230,230,230)" stroke-width="1" opacity="0.5137254901960784" d="M 140.5 140 L 141 142.5 L 137 145.5 L 140.5 140 Z " /><path fill="rgb(230,230,230)" stroke="rgb(230,230,230)" stroke-width="1" opacity="0.5137254901960784" d="M 30.5 147 L 31 148.5 L 29.5 151 L 29 149.5 L 30.5 147 Z " /><path fill="rgb(230,230,230)" stroke="rgb(230,230,230)" stroke-width="1" opacity="0.5137254901960784" d="M 28.5 152 L 29 153.5 L 27.5 156 L 27 154.5 L 28.5 152 Z " /><path fill="rgb(230,230,230)" stroke="rgb(230,230,230)" stroke-width="1" opacity="0.5137254901960784" d="M 104.5 154 L 105 156.5 L 104 156.5 L 104.5 154 Z " /><path fill="rgb(230,230,230)" stroke="rgb(230,230,230)" stroke-width="1" opacity="0.5137254901960784" d="M 34.5 155 L 33.5 157 L 34.5 155 Z " /><path fill="rgb(230,230,230)" stroke="rgb(230,230,230)" stroke-width="1" opacity="0.5137254901960784" d="M 26.5 157 L 27 158.5 L 25 159.5 L 26.5 157 Z " /><path fill="rgb(230,230,230)" stroke="rgb(230,230,230)" stroke-width="1" opacity="0.5137254901960784" d="M 131.5 157 L 132 159.5 L 131 159.5 L 131.5 157 Z " /><path fill="rgb(230,230,230)" stroke="rgb(230,230,230)" stroke-width="1" opacity="0.5137254901960784" d="M 31.5 160 L 31 161.5 L 29.5 164 L 30 162.5 L 31.5 160 Z " /><path fill="rgb(230,230,230)" stroke="rgb(230,230,230)" stroke-width="1" opacity="0.5137254901960784" d="M 23.5 163 L 22.5 165 L 23.5 163 Z " /><path fill="rgb(230,230,230)" stroke="rgb(230,230,230)" stroke-width="1" opacity="0.5137254901960784" d="M 102.5 163 L 103 165.5 L 102 165.5 L 102.5 163 Z " /><path fill="rgb(230,230,230)" stroke="rgb(230,230,230)" stroke-width="1" opacity="0.5137254901960784" d="M 28.5 165 L 27.5 167 L 28.5 165 Z " /><path fill="rgb(230,230,230)" stroke="rgb(230,230,230)" stroke-width="1" opacity="0.5137254901960784" d="M 130.5 165 L 131 168.5 L 130 168.5 L 130.5 165 Z " /><path fill="rgb(230,230,230)" stroke="rgb(230,230,230)" stroke-width="1" opacity="0.5137254901960784" d="M 21.5 166 L 20.5 168 L 21.5 166 Z " /><path fill="rgb(230,230,230)" stroke="rgb(230,230,230)" stroke-width="1" opacity="0.5137254901960784" d="M 101.5 167 L 100.5 169 L 101.5 167 Z " /><path fill="rgb(230,230,230)" stroke="rgb(230,230,230)" stroke-width="1" opacity="0.5137254901960784" d="M 26.5 168 L 25.5 170 L 26.5 168 Z " /><path fill="rgb(230,230,230)" stroke="rgb(230,230,230)" stroke-width="1" opacity="0.5137254901960784" d="M 18.5 171 L 17.5 173 L 18.5 171 Z " /><path fill="rgb(230,230,230)" stroke="rgb(230,230,230)" stroke-width="1" opacity="0.5137254901960784" d="M 24.5 171 L 23.5 173 L 24.5 171 Z " /><path fill="rgb(230,230,230)" stroke="rgb(230,230,230)" stroke-width="1" opacity="0.5137254901960784" d="M 16.5 174 L 16 175.5 L 14.5 178 L 15 176.5 L 16.5 174 Z " /><path fill="rgb(230,230,230)" stroke="rgb(230,230,230)" stroke-width="1" opacity="0.5137254901960784" d="M 22.5 174 L 20.5 177 L 22.5 174 Z " /><path fill="rgb(230,230,230)" stroke="rgb(230,230,230)" stroke-width="1" opacity="0.5137254901960784" d="M 132.5 175 L 134 178.5 L 133 178.5 L 132.5 175 Z " /><path fill="rgb(230,230,230)" stroke="rgb(230,230,230)" stroke-width="1" opacity="0.5137254901960784" d="M 13.5 179 L 12.5 181 L 13.5 179 Z " /><path fill="rgb(230,230,230)" stroke="rgb(230,230,230)" stroke-width="1" opacity="0.5137254901960784" d="M 18.5 179 L 16.5 182 L 18.5 179 Z " /><path fill="rgb(230,230,230)" stroke="rgb(230,230,230)" stroke-width="1" opacity="0.5137254901960784" d="M 98.5 182 L 99.5 184 L 98.5 182 Z " /><path fill="rgb(230,230,230)" stroke="rgb(230,230,230)" stroke-width="1" opacity="0.5137254901960784" d="M 135.5 182 L 138 185.5 L 136 184.5 L 135.5 182 Z " /><path fill="rgb(230,230,230)" stroke="rgb(230,230,230)" stroke-width="1" opacity="0.5137254901960784" d="M 15.5 183 L 13.5 186 L 15.5 183 Z " /><path fill="rgb(230,230,230)" stroke="rgb(230,230,230)" stroke-width="1" opacity="0.5137254901960784" d="M 100.5 185 L 101.5 187 L 100.5 185 Z " /><path fill="rgb(230,230,230)" stroke="rgb(230,230,230)" stroke-width="1" opacity="0.5137254901960784" d="M 10.5 187 L 13 187.5 L 10 189 L 10.5 187 Z " /><path fill="rgb(230,230,230)" stroke="rgb(230,230,230)" stroke-width="1" opacity="0.5137254901960784" d="M 103.5 187 L 104.5 189 L 103.5 187 Z " /><path fill="rgb(230,230,230)" stroke="rgb(230,230,230)" stroke-width="1" opacity="0.5137254901960784" d="M 138.5 187 L 141.5 191 L 138.5 187 Z " /><path fill="rgb(230,230,230)" stroke="rgb(230,230,230)" stroke-width="1" opacity="0.5137254901960784" d="M 106.5 189 L 107.5 191 L 106.5 189 Z " /><path fill="rgb(230,230,230)" stroke="rgb(230,230,230)" stroke-width="1" opacity="0.5137254901960784" d="M 143.5 191 L 144.5 193 L 143.5 191 Z " /><path fill="rgb(230,230,230)" stroke="rgb(230,230,230)" stroke-width="1" opacity="0.5137254901960784" d="M 110.5 192 L 111.5 194 L 110.5 192 Z " /><path fill="rgb(230,230,230)" stroke="rgb(230,230,230)" stroke-width="1" opacity="0.5137254901960784" d="M 146.5 193 L 147.5 195 L 146.5 193 Z " /><path fill="rgb(230,230,230)" stroke="rgb(230,230,230)" stroke-width="1" opacity="0.5137254901960784" d="M 115.5 195 L 116.5 197 L 115.5 195 Z " /><path fill="rgb(230,230,230)" stroke="rgb(230,230,230)" stroke-width="1" opacity="0.5137254901960784" d="M 151.5 196 L 152.5 198 L 151.5 196 Z " /><path fill="rgb(230,230,230)" stroke="rgb(230,230,230)" stroke-width="1" opacity="0.5137254901960784" d="M 118.5 197 L 122 199.5 L 120.5 199 L 118.5 197 Z " /><path fill="rgb(230,230,230)" stroke="rgb(230,230,230)" stroke-width="1" opacity="0.5137254901960784" d="M 154.5 198 L 160 203.5 L 160 207.5 L 155.5 213 L 158 209.5 L 159 203.5 L 154.5 198 Z " /><path fill="rgb(230,230,230)" stroke="rgb(230,230,230)" stroke-width="1" opacity="0.5137254901960784" d="M 127.5 202 L 131 204.5 L 129.5 204 L 127.5 202 Z " /><path fill="rgb(230,230,230)" stroke="rgb(230,230,230)" stroke-width="1" opacity="0.5137254901960784" d="M 136.5 207 L 139 208.5 L 137.5 209 L 136.5 207 Z " /><path fill="rgb(230,230,230)" stroke="rgb(230,230,230)" stroke-width="1" opacity="0.5137254901960784" d="M 140.5 209 L 143 210.5 L 141.5 211 L 140.5 209 Z " /><path fill="rgb(230,230,230)" stroke="rgb(230,230,230)" stroke-width="1" opacity="0.5137254901960784" d="M 150.5 213 L 154 213.5 L 150.5 214 L 150.5 213 Z " /><path fill="rgb(254,254,254)" stroke="rgb(254,254,254)" stroke-width="1" opacity="0.996078431372549" d="M 42.5 38 L 43.5 40 L 42.5 38 Z " /><path fill="rgb(254,254,254)" stroke="rgb(254,254,254)" stroke-width="1" opacity="0.996078431372549" d="M 46.5 38 L 45.5 40 L 46.5 38 Z " /><path fill="rgb(254,254,254)" stroke="rgb(254,254,254)" stroke-width="1" opacity="0.996078431372549" d="M 39.5 40 L 38.5 43 L 40 43.5 L 34 48.5 L 31.5 54 L 31 52.5 L 31.5 50 Q 33.8 50.8 33 48.5 L 39.5 40 Z " /><path fill="rgb(254,254,254)" stroke="rgb(254,254,254)" stroke-width="1" opacity="0.996078431372549" d="M 47.5 40 L 52 43.5 Q 51.3 45.8 53.5 45 L 52.5 47 L 47.5 40 Z " /><path fill="rgb(254,254,254)" stroke="rgb(254,254,254)" stroke-width="1" opacity="0.996078431372549" d="M 43.5 43 L 46 44 L 49 50.5 L 47 49.5 L 43.5 43 Z " /><path fill="rgb(254,254,254)" stroke="rgb(254,254,254)" stroke-width="1" opacity="0.996078431372549" d="M 63.5 52 L 66 53.5 L 62 55.5 L 61.5 57 L 61 55.5 L 63.5 52 Z " /><path fill="rgb(254,254,254)" stroke="rgb(254,254,254)" stroke-width="1" opacity="0.996078431372549" d="M 79.5 53 L 80.5 55 L 79.5 53 Z " /><path fill="rgb(254,254,254)" stroke="rgb(254,254,254)" stroke-width="1" opacity="0.996078431372549" d="M 74.5 54 L 73 56.5 L 74 61 L 76 61 Q 74.9 63.7 77.5 63 L 80 64.5 L 78.5 65 L 73 60.5 L 72 56.5 L 74.5 54 Z " /><path fill="rgb(254,254,254)" stroke="rgb(254,254,254)" stroke-width="1" opacity="0.996078431372549" d="M 29.5 55 Q 31.8 54.3 31 56.5 L 29.5 60 L 29 57.5 L 29.5 55 Z " /><path fill="rgb(254,254,254)" stroke="rgb(254,254,254)" stroke-width="1" opacity="0.996078431372549" d="M 87.5 55 L 88 57 Q 106.4 61.1 116 75.5 L 117.5 78 L 119 78.5 L 118.5 80 L 120 80.5 L 118.5 81 L 106.5 67 Q 98.2 59.8 86 56.5 L 87.5 55 Z " /><path fill="rgb(254,254,254)" stroke="rgb(254,254,254)" stroke-width="1" opacity="0.996078431372549" d="M 64.5 63 L 66 64.5 Q 62.9 66.3 64.5 68 L 61 69 L 61.5 67 L 63 67.5 L 65 64.5 L 64.5 63 Z " /><path fill="rgb(254,254,254)" stroke="rgb(254,254,254)" stroke-width="1" opacity="0.996078431372549" d="M 35.5 64 L 35.5 67 L 33.5 67 L 32 66.5 L 35.5 64 Z " /><path fill="rgb(254,254,254)" stroke="rgb(254,254,254)" stroke-width="1" opacity="0.996078431372549" d="M 27.5 65 L 26.5 67 L 27.5 65 Z " /><path fill="rgb(254,254,254)" stroke="rgb(254,254,254)" stroke-width="1" opacity="0.996078431372549" d="M 29 65 L 31 65.5 L 29 66.5 L 29 65 Z " /><path fill="rgb(254,254,254)" stroke="rgb(254,254,254)" stroke-width="1" opacity="0.996078431372549" d="M 81.5 65 L 82.5 67 L 81.5 65 Z " /><path fill="rgb(254,254,254)" stroke="rgb(254,254,254)" stroke-width="1" opacity="0.996078431372549" d="M 84.5 67 L 89 70.5 L 85.5 68 L 84.5 67 Z " /><path fill="rgb(254,254,254)" stroke="rgb(254,254,254)" stroke-width="1" opacity="0.996078431372549" d="M 36.5 68 L 38 71.5 L 37 71.5 L 36.5 68 Z " /><path fill="rgb(254,254,254)" stroke="rgb(254,254,254)" stroke-width="1" opacity="0.996078431372549" d="M 90.5 71 L 94 74.5 L 92.5 76 L 90.5 72 L 89 72.5 L 90.5 71 Z " /><path fill="rgb(254,254,254)" stroke="rgb(254,254,254)" stroke-width="1" opacity="0.996078431372549" d="M 25.5 76 L 27 82.5 L 25 81.5 L 25.5 76 Z " /><path fill="rgb(254,254,254)" stroke="rgb(254,254,254)" stroke-width="1" opacity="0.996078431372549" d="M 94.5 76 L 96 78.5 L 95 78.5 L 94.5 76 Z " /><path fill="rgb(254,254,254)" stroke="rgb(254,254,254)" stroke-width="1" opacity="0.996078431372549" d="M 49.5 79 L 49 80.5 L 50 82.5 L 48 81.5 L 49.5 79 Z " /><path fill="rgb(254,254,254)" stroke="rgb(254,254,254)" stroke-width="1" opacity="0.996078431372549" d="M 27.5 87 L 30.5 91 L 27.5 87 Z " /><path fill="rgb(254,254,254)" stroke="rgb(254,254,254)" stroke-width="1" opacity="0.996078431372549" d="M 34.5 87 L 34 88.5 Q 34.8 90.8 32.5 90 L 34.5 87 Z " /><path fill="rgb(254,254,254)" stroke="rgb(254,254,254)" stroke-width="1" opacity="0.996078431372549" d="M 96.5 88 L 95.5 90 L 96.5 88 Z " /><path fill="rgb(254,254,254)" stroke="rgb(254,254,254)" stroke-width="1" opacity="0.996078431372549" d="M 120.5 90 L 122 93.5 L 120 94.5 L 121 91.5 L 120.5 90 Z " /><path fill="rgb(254,254,254)" stroke="rgb(254,254,254)" stroke-width="1" opacity="0.996078431372549" d="M 94.5 92 L 94 93.5 Q 94.8 95.8 92.5 95 L 91 98 L 87 99 L 87.5 97 L 88.5 98 L 94.5 92 Z " /><path fill="rgb(254,254,254)" stroke="rgb(254,254,254)" stroke-width="1" opacity="0.996078431372549" d="M 57.5 96 Q 59.8 95.3 59 97.5 L 57.5 96 Z " /><path fill="rgb(254,254,254)" stroke="rgb(254,254,254)" stroke-width="1" opacity="0.996078431372549" d="M 66.5 98 L 68 99.5 Q 64.9 101.2 66.5 103 Q 63.5 103.7 65 100 L 67 99.5 L 66.5 98 Z " /><path fill="rgb(254,254,254)" stroke="rgb(254,254,254)" stroke-width="1" opacity="0.996078431372549" d="M 73.5 98 Q 75.8 97.3 75 99.5 L 73.5 98 Z " /><path fill="rgb(254,254,254)" stroke="rgb(254,254,254)" stroke-width="1" opacity="0.996078431372549" d="M 85.5 99 L 84.5 101 L 85.5 99 Z " /><path fill="rgb(254,254,254)" stroke="rgb(254,254,254)" stroke-width="1" opacity="0.996078431372549" d="M 53.5 101 L 54.5 103 L 53.5 101 Z " /><path fill="rgb(254,254,254)" stroke="rgb(254,254,254)" stroke-width="1" opacity="0.996078431372549" d="M 56.5 102 L 58 107.5 L 56 106.5 L 56.5 102 Z " /><path fill="rgb(254,254,254)" stroke="rgb(254,254,254)" stroke-width="1" opacity="0.996078431372549" d="M 117.5 102 L 119 102.5 L 111.5 108 L 112.5 106 L 117.5 102 Z " /><path fill="rgb(254,254,254)" stroke="rgb(254,254,254)" stroke-width="1" opacity="0.996078431372549" d="M 61 104 Q 64 103 63 106 Q 60 107 61 104 Z " /><path fill="rgb(254,254,254)" stroke="rgb(254,254,254)" stroke-width="1" opacity="0.996078431372549" d="M 67.5 104 L 70 105 Q 68.9 107.7 71.5 107 L 75 109.5 L 72 109.5 L 71.5 108 L 70 108.5 L 67.5 104 Z " /><path fill="rgb(254,254,254)" stroke="rgb(254,254,254)" stroke-width="1" opacity="0.996078431372549" d="M 60.5 107 L 61.5 109 L 60.5 107 Z " /><path fill="rgb(254,254,254)" stroke="rgb(254,254,254)" stroke-width="1" opacity="0.996078431372549" d="M 53.5 108 L 54 109.5 L 52 110.5 L 53.5 108 Z " /><path fill="rgb(254,254,254)" stroke="rgb(254,254,254)" stroke-width="1" opacity="0.996078431372549" d="M 76.5 110 L 82 112.5 L 80.5 113 L 76.5 111 L 76.5 110 Z " /><path fill="rgb(254,254,254)" stroke="rgb(254,254,254)" stroke-width="1" opacity="0.996078431372549" d="M 96.5 111 L 105.5 118 L 107 117.5 L 108.5 120 L 113 122.5 L 111.5 122 L 96 112.5 L 96.5 111 Z " /><path fill="rgb(254,254,254)" stroke="rgb(254,254,254)" stroke-width="1" opacity="0.996078431372549" d="M 44.5 112 L 44.5 115 Q 41.5 113.5 44.5 112 Z " /><path fill="rgb(254,254,254)" stroke="rgb(254,254,254)" stroke-width="1" opacity="0.996078431372549" d="M 86.5 114 L 90 116.5 L 88.5 116 L 86.5 115 L 85 115.5 L 86.5 114 Z " /><path fill="rgb(254,254,254)" stroke="rgb(254,254,254)" stroke-width="1" opacity="0.996078431372549" d="M 91.5 117 L 102 128.5 L 100.5 128 L 99 127.5 L 100 126.5 L 91.5 117 Z " /><path fill="rgb(254,254,254)" stroke="rgb(254,254,254)" stroke-width="1" opacity="0.996078431372549" d="M 114.5 123 L 120 126.5 L 118.5 127 L 114.5 123 Z " /><path fill="rgb(254,254,254)" stroke="rgb(254,254,254)" stroke-width="1" opacity="0.996078431372549" d="M 47.5 125 L 47.5 128 Q 45.3 127.3 46 129.5 L 45 129.5 L 47.5 125 Z " /><path fill="rgb(254,254,254)" stroke="rgb(254,254,254)" stroke-width="1" opacity="0.996078431372549" d="M 40.5 127 L 41 129.5 L 38.5 131 L 38.5 130 Q 41.4 130.7 40.5 127 Z " /><path fill="rgb(254,254,254)" stroke="rgb(254,254,254)" stroke-width="1" opacity="0.996078431372549" d="M 122.5 127 L 128 130.5 L 126.5 131 L 122.5 127 Z " /><path fill="rgb(254,254,254)" stroke="rgb(254,254,254)" stroke-width="1" opacity="0.996078431372549" d="M 129.5 131 L 133.5 134 L 135 133.5 L 138 137.5 L 134.5 135 Q 129.9 134.3 129.5 131 Z " /><path fill="rgb(254,254,254)" stroke="rgb(254,254,254)" stroke-width="1" opacity="0.996078431372549" d="M 38.5 134 L 38 135.5 L 36.5 139 L 36 137.5 L 38.5 134 Z " /><path fill="rgb(254,254,254)" stroke="rgb(254,254,254)" stroke-width="1" opacity="0.996078431372549" d="M 104.5 134 L 106 136.5 L 105.5 139 L 104 135.5 L 104.5 134 Z " /><path fill="rgb(254,254,254)" stroke="rgb(254,254,254)" stroke-width="1" opacity="0.996078431372549" d="M 42.5 136 L 43.5 138 Q 41.3 137.3 42 139.5 L 29.5 161 L 30 159.5 L 42.5 136 Z " /><path fill="rgb(254,254,254)" stroke="rgb(254,254,254)" stroke-width="1" opacity="0.996078431372549" d="M 139.5 138 L 138.5 140 L 139.5 138 Z " /><path fill="rgb(254,254,254)" stroke="rgb(254,254,254)" stroke-width="1" opacity="0.996078431372549" d="M 138.5 142 L 136 145.5 L 135.5 147 L 135 145.5 L 138.5 142 Z " /><path fill="rgb(254,254,254)" stroke="rgb(254,254,254)" stroke-width="1" opacity="0.996078431372549" d="M 33.5 144 L 34 145.5 L 30.5 152 L 30 150.5 L 33.5 144 Z " /><path fill="rgb(254,254,254)" stroke="rgb(254,254,254)" stroke-width="1" opacity="0.996078431372549" d="M 133.5 150 L 133 151.5 L 132 153.5 L 132.5 155 Q 130.3 155.8 131 153.5 L 133.5 150 Z " /><path fill="rgb(254,254,254)" stroke="rgb(254,254,254)" stroke-width="1" opacity="0.996078431372549" d="M 105.5 157 L 104.5 159 L 105.5 157 Z " /><path fill="rgb(254,254,254)" stroke="rgb(254,254,254)" stroke-width="1" opacity="0.996078431372549" d="M 27.5 159 L 27 160.5 L 23 168.5 L 25 167.5 L 28.5 162 L 28 163.5 L 24 169.5 L 24.5 171 L 22 172.5 L 12.5 185 L 12 183.5 L 14.5 180 L 16 179.5 Q 13.8 178.2 16.5 177 L 18 176.5 L 17.5 175 Q 19.3 177.7 21 173.5 L 20.5 172 L 18 173.5 L 21 169.5 L 20.5 168 L 22 168.5 L 23 166.5 L 22.5 165 L 25 163.5 L 27.5 159 Z " /><path fill="rgb(254,254,254)" stroke="rgb(254,254,254)" stroke-width="1" opacity="0.996078431372549" d="M 102.5 168 L 102 169.5 L 99.5 174 L 100 172.5 L 102.5 168 Z " /><path fill="rgb(254,254,254)" stroke="rgb(254,254,254)" stroke-width="1" opacity="0.996078431372549" d="M 130.5 169 L 129.5 171 L 130.5 169 Z " /><path fill="rgb(254,254,254)" stroke="rgb(254,254,254)" stroke-width="1" opacity="0.996078431372549" d="M 130.5 173 Q 133.5 174.5 130.5 176 L 130.5 173 Z " /><path fill="rgb(254,254,254)" stroke="rgb(254,254,254)" stroke-width="1" opacity="0.996078431372549" d="M 97 176 L 99 176.5 L 98.5 179 L 97 176 Z " /><path fill="rgb(254,254,254)" stroke="rgb(254,254,254)" stroke-width="1" opacity="0.996078431372549" d="M 131.5 177 L 141.5 192 L 143 191.5 L 144.5 194 L 146 193.5 Q 144.3 196.8 142.5 193 L 136 187.5 L 131 178.5 L 131.5 177 Z " /><path fill="rgb(254,254,254)" stroke="rgb(254,254,254)" stroke-width="1" opacity="0.996078431372549" d="M 99.5 181 L 102 184.5 L 101 184.5 L 99.5 181 Z " /><path fill="rgb(254,254,254)" stroke="rgb(254,254,254)" stroke-width="1" opacity="0.996078431372549" d="M 103.5 185 L 110 189 L 109.5 191 L 103.5 186 L 102 186.5 L 103.5 185 Z " /><path fill="rgb(254,254,254)" stroke="rgb(254,254,254)" stroke-width="1" opacity="0.996078431372549" d="M 111.5 191 L 134 204.5 L 131 204.5 Q 131.8 202.3 129.5 203 L 123.5 199 L 122 199.5 L 120.5 197 L 113.5 193 L 112 193.5 L 112.5 192 L 111.5 191 Z " /><path fill="rgb(254,254,254)" stroke="rgb(254,254,254)" stroke-width="1" opacity="0.996078431372549" d="M 146.5 195 L 158 203.5 L 153.5 200 Q 147.3 198.6 146.5 195 Z " /><path fill="rgb(254,254,254)" stroke="rgb(254,254,254)" stroke-width="1" opacity="0.996078431372549" d="M 156.5 209 L 157 211 Q 154.3 209.9 155 212.5 L 154 212.5 Q 152.9 209.2 155.5 210 L 156.5 209 Z " /><path fill="rgb(254,254,254)" stroke="rgb(254,254,254)" stroke-width="1" opacity="0.996078431372549" d="M 147.5 210 L 148.5 212 L 147.5 210 Z " /><path fill="rgb(255,255,255)" stroke="rgb(255,255,255)" stroke-width="1" opacity="1" d="M 43.5 38 Q 50.8 38.3 53 43.5 L 52 46.5 L 54 46.5 L 55 50.5 Q 52.5 52 56 53.5 L 55 56.5 Q 58.6 59.4 57 67.5 L 57 69.5 Q 58.5 77 56 80.5 Q 58.3 81.8 57 86.5 L 55 91.5 L 56 95.5 Q 52.5 97 55 98.5 L 53 105.5 L 54 107.5 L 52 110.5 L 53 112.5 L 51 112.5 L 52 115.5 L 49 125 L 47 125.5 L 47.5 127 L 46 126.5 L 47 129.5 L 43.5 137 L 42 136.5 L 43 139.5 L 40 140.5 L 41 142.5 L 39 142.5 L 40 144.5 L 38 144.5 L 39 146.5 L 37 146.5 L 38 148.5 L 36 148.5 L 37 150.5 L 34 151.5 L 34.5 153 L 36 152.5 L 24.5 170 Q 23.3 167.8 22 170.5 L 22.5 172 L 24 171.5 L 11.5 188 L 11 183.5 L 22.5 166 L 24 166.5 L 23 164.5 L 27 157 L 29 156.5 L 28 154.5 L 29.5 151 L 31 151.5 L 30 149.5 L 32 149.5 L 31 146.5 L 35.5 138 L 37 138.5 L 36 136.5 L 38 136.5 L 37 133.5 L 38 131 L 40 130.5 L 39 128.5 L 40 128.5 L 40.5 130 L 41 127.5 L 40 125.5 L 42 118.5 L 44 116.5 L 43 114.5 Q 46.5 113 44 111.5 L 46 106.5 L 45 103.5 L 47 99.5 L 46 96.5 Q 49.5 95 47 93.5 Q 45.1 88.1 48.5 89 L 48 87.5 Q 47 81.5 50 79.5 L 49 74.5 L 49 72.5 L 47 50.5 L 48 48.5 L 46 48.5 L 47 46.5 Q 44.7 48.2 42.5 44 L 38.5 43 Q 40.4 45.8 35 48.5 L 31.5 56 L 30 52.5 L 33 51.5 L 32 48.5 L 34.5 45 L 34 46.5 L 34.5 48 L 38 44.5 L 36.5 43 L 35 43.5 L 39.5 39 L 43.5 38 Z M 48 40 L 52 45 L 52 44 L 48 40 Z M 45 44 L 46 46 Q 47 43 45 44 Z M 19 176 L 16 178 Q 18 181 19 178 L 19 176 Z M 15 180 L 12 184 L 13 185 L 16 181 L 15 180 Z " /><path fill="rgb(255,255,255)" stroke="rgb(255,255,255)" stroke-width="1" opacity="1" d="M 74.5 53 L 76.5 54 L 78.5 53 L 80.5 53 Q 82.8 52.3 82 54.5 L 84 54.5 L 84.5 56 L 86.5 55 L 86.5 57 L 89.5 56 L 89.5 57 L 88 57.5 L 90.5 58 L 92.5 57 L 92.5 58 L 91 58.5 L 93.5 59 L 95 58.5 L 94.5 60 L 96.5 59 L 96.5 61 L 99.5 60 L 117 75.5 L 118 77.5 L 117 79.5 L 119 79.5 L 118.5 81 Q 120.8 80.3 120 82.5 L 119 84.5 L 121 84.5 L 120 86.5 L 122 90.5 L 121 93.5 L 121 95.5 Q 121.6 103.6 116.5 106 L 110.5 109 L 109 108.5 Q 109.6 111.3 103.5 110 L 100.5 111 L 96.5 109 L 100.5 116 L 102 115.5 L 101.5 114 L 103.5 118 L 105 117.5 L 104.5 116 L 105.5 119 L 107.5 118 L 122 126 L 122.5 128 L 124.5 128 L 134 133.5 L 133.5 135 L 135.5 134 Q 139.9 136.1 140 142.5 L 132.5 154 L 131 153.5 L 132 157 L 130 157.5 L 131 160.5 L 130 161.5 L 130 169.5 L 131 172.5 Q 128.5 174 132 175.5 L 136 183.5 L 135 185.5 L 138 186.5 L 136 186.5 L 137.5 189 L 138.5 188 L 142 191.5 L 141.5 193 L 143.5 192 L 153.5 198 L 159 203.5 Q 159.8 208.3 157.5 210 L 155.5 210 Q 152.5 209.2 154 213 L 149 213 L 148.5 211 L 146 212 L 145.5 210 L 143.5 211 L 132 204.5 L 132.5 203 L 130.5 204 L 129.5 201 L 128 201.5 L 128.5 203 L 123 199.5 L 123.5 198 L 121.5 199 L 100 184.5 L 97 178.5 Q 100.5 177 98 175.5 L 102 166 L 104 165.5 L 103 162.5 L 105 158.5 L 105 156.5 L 106 153.5 L 106 151.5 L 105 148.5 Q 107.3 147.3 106 142.5 L 105 139.5 L 105 135.5 L 104.5 134 L 103 134.5 L 100 128.5 L 101 126.5 L 99.5 127 L 90.5 118 L 81 113.5 L 81.5 112 L 78.5 113 L 73 109.5 L 73.5 108 L 71.5 109 L 71.5 107 L 69.5 108 L 66 103.5 L 66 99.5 L 67.5 98 Q 73.3 96.7 74.5 100 L 77.5 99 L 79.5 99 L 82.5 100 L 86.5 98 L 88.5 99 L 88 97.5 L 94 91.5 Q 93.3 89.3 95.5 90 L 95 88.5 L 96 82.5 L 95 79.5 L 96 77.5 L 93 76.5 L 89.5 72 L 83 67.5 L 82.5 66 L 80.5 66 L 79 65.5 L 79.5 64 L 77.5 65 L 77.5 63 L 75.5 64 Q 71.4 62 71 56.5 L 74.5 53 Z M 73 56 L 72 59 L 73 59 L 73 56 Z M 75 61 L 76 63 Q 77 60 75 61 Z M 105 65 L 106 67 L 107 67 L 105 65 Z M 115 74 L 114 76 L 116 77 L 115 74 Z M 94 93 L 92 95 L 94 95 L 94 93 Z M 91 96 L 89 98 L 91 98 L 91 96 Z M 118 102 L 116 105 L 119 103 L 118 102 Z M 69 105 L 70 107 Q 71 104 69 105 Z M 97 111 L 96 113 L 99 114 L 97 111 Z M 118 125 L 119 127 L 120 127 L 118 125 Z M 109 189 L 110 191 Q 111 188 109 189 Z M 150 197 L 151 199 L 152 199 L 150 197 Z " /><path fill="rgb(255,255,255)" stroke="rgb(255,255,255)" stroke-width="1" opacity="1" d="M 61.5 54 L 66 54.5 L 66 63.5 L 64 65.5 L 64.5 67 L 63 66.5 L 64 68.5 L 61.5 70 L 59 65.5 L 61 60.5 L 60 56.5 L 62 56.5 L 61.5 54 Z M 62 67 Q 60 70 63 69 L 62 67 Z " /><path fill="rgb(255,255,255)" stroke="rgb(255,255,255)" stroke-width="1" opacity="1" d="M 29.5 56 L 31 58.5 L 30 58.5 L 29.5 56 Z " /><path fill="rgb(255,255,255)" stroke="rgb(255,255,255)" stroke-width="1" opacity="1" d="M 28.5 58 Q 30.8 59.8 30 64.5 L 29 66.5 L 30.5 66 L 34.5 64 L 38 69.5 L 37 71.5 L 38 73.5 L 38 75.5 Q 38.8 80.8 36 82.5 L 37 85.5 L 34.5 89 Q 33.3 86.8 32 89.5 L 32.5 91 L 30.5 90 L 29.5 91 L 26 87.5 L 25 82.5 L 27 73.5 Q 24.8 72.3 26 67.5 L 27 64.5 L 28.5 58 Z M 34 65 L 33 67 L 35 66 L 34 65 Z " /><path fill="rgb(255,255,255)" stroke="rgb(255,255,255)" stroke-width="1" opacity="1" d="M 59.5 93 L 63 94.5 L 63 103.5 L 61 104 L 61 105.5 L 62 107.5 L 59.5 111 L 57 109.5 L 56 107.5 L 58 100.5 L 57 97.5 L 59 97.5 L 58 94.5 L 59.5 93 Z " /></svg>